<?xml version="1.0" encoding="UTF-8"?>
<svg id="design" xmlns="http://www.w3.org/2000/svg" width="560" height="560" viewBox="0 0 560 560">
  <defs>
    <style>
      .cls-1 {
        opacity: .2;
      }

      .cls-2, .cls-3 {
        fill: #333;
      }

      .cls-4 {
        fill: #2b2bf0;
      }

      .cls-3 {
        opacity: .1;
      }
    </style>
  </defs>
  <circle class="cls-3" cx="281.18" cy="294.38" r="179.66"/>
  <g>
    <path class="cls-4" d="M134.56,137.79c-1.49,1.48-3.08,2.43-4.76,2.87-1.68,.43-3.39,.35-5.11-.23-1.72-.59-3.37-1.67-4.93-3.24-1.17-1.18-2.06-2.4-2.67-3.67-.61-1.27-.95-2.54-1-3.82-.06-1.28,.18-2.54,.71-3.77,.53-1.24,1.36-2.41,2.48-3.52,.85-.85,1.79-1.54,2.82-2.08s2.04-.87,3.05-1c.38-.07,.71-.04,.98,.09s.47,.31,.59,.53c.13,.23,.18,.47,.17,.72-.01,.25-.12,.48-.31,.69-.19,.2-.48,.34-.86,.41-.88,.11-1.7,.37-2.46,.78-.77,.41-1.48,.94-2.15,1.6-1.09,1.08-1.79,2.24-2.09,3.45s-.21,2.45,.26,3.71c.48,1.26,1.34,2.52,2.6,3.79,1.24,1.25,2.49,2.12,3.77,2.62,1.27,.5,2.51,.6,3.73,.31,1.22-.29,2.37-.98,3.46-2.07,.67-.66,1.21-1.38,1.63-2.17,.42-.78,.7-1.62,.83-2.51,.07-.38,.21-.66,.42-.84,.21-.18,.42-.27,.66-.29,.23-.02,.46,.03,.69,.16,.22,.13,.4,.31,.53,.55,.13,.24,.16,.53,.1,.87-.09,1.08-.41,2.13-.97,3.18-.56,1.04-1.27,2-2.15,2.88Z"/>
    <path class="cls-4" d="M131.1,116.17c-.41,.35-.83,.52-1.25,.51-.42-.02-.79-.21-1.11-.57-.34-.39-.48-.79-.42-1.2s.29-.79,.7-1.14c.44-.38,.86-.56,1.25-.55,.4,.01,.76,.22,1.1,.61,.31,.36,.46,.75,.43,1.16-.03,.41-.26,.8-.7,1.18Zm11.89,13.72c-.32,.27-.65,.39-1,.35s-.68-.23-.98-.58l-7.84-9.05c-.31-.36-.46-.72-.45-1.06,.02-.35,.18-.66,.5-.93,.33-.29,.67-.42,1.02-.38,.34,.03,.67,.23,.99,.59l7.84,9.05c.3,.35,.45,.7,.45,1.04,0,.35-.18,.67-.53,.97Z"/>
    <path class="cls-4" d="M148.35,125.47c-.36,.29-.71,.41-1.05,.37-.34-.04-.65-.24-.93-.6l-7.6-9.6c-.29-.36-.41-.71-.36-1.04,.04-.33,.23-.62,.56-.88,.33-.26,.65-.37,.98-.33,.32,.04,.63,.24,.91,.6l1.43,1.81-.23,.19c-.49-1.14-.59-2.22-.28-3.26,.3-1.03,.96-2,1.96-2.89,.24-.21,.49-.32,.75-.31s.53,.16,.79,.46c.25,.29,.37,.58,.36,.89s-.17,.6-.48,.89l-.41,.36c-.95,.93-1.48,1.9-1.59,2.9-.11,1,.23,2,1.01,2.99l4.36,5.5c.29,.36,.41,.71,.38,1.04-.03,.33-.22,.63-.56,.91Z"/>
    <path class="cls-4" d="M160.66,116.37c-1.21,.85-2.44,1.32-3.69,1.42s-2.44-.15-3.57-.76c-1.13-.61-2.15-1.56-3.04-2.83-.66-.95-1.12-1.9-1.38-2.84-.26-.94-.32-1.86-.18-2.75,.14-.89,.47-1.73,1.01-2.51,.54-.79,1.26-1.5,2.18-2.15,.57-.4,1.24-.73,2.01-1s1.56-.38,2.39-.35c.27,0,.49,.08,.66,.21,.17,.14,.3,.31,.38,.52,.08,.21,.11,.42,.07,.63s-.14,.39-.32,.54c-.18,.15-.42,.23-.72,.25-.6-.02-1.16,.06-1.69,.23-.53,.17-.99,.4-1.38,.67-.61,.42-1.08,.9-1.4,1.42-.33,.52-.53,1.08-.59,1.67-.06,.59,.01,1.21,.22,1.86,.21,.65,.56,1.32,1.05,2.03,.97,1.39,2.07,2.26,3.28,2.6,1.21,.34,2.42,.09,3.61-.75,.39-.28,.76-.62,1.1-1.04,.34-.42,.61-.92,.82-1.5,.12-.28,.28-.47,.48-.57,.2-.1,.4-.13,.61-.1s.39,.13,.54,.28c.15,.15,.26,.33,.33,.55,.07,.22,.05,.45-.05,.69-.25,.76-.62,1.45-1.12,2.06-.5,.62-1.03,1.12-1.61,1.53Z"/>
    <path class="cls-4" d="M171.13,109.65c-1.02,.6-1.98,.91-2.88,.94-.9,.02-1.74-.24-2.5-.78s-1.48-1.38-2.14-2.5l-4-6.76c-.23-.4-.31-.75-.23-1.07,.08-.32,.31-.58,.69-.81,.38-.22,.73-.3,1.05-.22,.32,.08,.6,.31,.84,.71l4,6.76c.63,1.07,1.31,1.73,2.04,1.98,.73,.25,1.56,.1,2.49-.45,1.03-.61,1.67-1.45,1.91-2.52s.02-2.17-.65-3.31l-3.62-6.12c-.23-.4-.31-.75-.23-1.07,.08-.31,.31-.58,.69-.81,.38-.22,.73-.3,1.05-.22s.6,.31,.84,.71l6.24,10.53c.48,.81,.34,1.44-.42,1.89-.38,.22-.73,.29-1.05,.2-.32-.09-.6-.33-.83-.73l-1.33-2.25,.6,.24c.25,1.2,.14,2.29-.31,3.27-.46,.98-1.2,1.77-2.23,2.38Z"/>
    <path class="cls-4" d="M181.99,103.28c-.38,.18-.73,.21-1.05,.09-.32-.12-.57-.38-.77-.8l-5.13-11.12c-.19-.42-.23-.78-.11-1.09,.12-.31,.37-.55,.75-.73,.38-.17,.73-.21,1.03-.09,.31,.11,.55,.38,.75,.79l1.07,2.32-.53-.35c-.12-1.16,.09-2.19,.61-3.09s1.32-1.6,2.39-2.09c1.13-.52,2.16-.67,3.1-.45,.94,.22,1.77,.82,2.51,1.8l-.38,.18c-.13-1.15,.09-2.21,.66-3.18,.58-.97,1.43-1.71,2.55-2.23,1-.46,1.91-.64,2.74-.55,.82,.09,1.58,.45,2.26,1.07,.68,.62,1.3,1.53,1.85,2.73l3.29,7.14c.19,.42,.23,.79,.11,1.1s-.37,.57-.75,.74c-.4,.19-.76,.22-1.08,.1-.32-.12-.57-.38-.77-.8l-3.24-7.03c-.54-1.16-1.13-1.92-1.78-2.29-.65-.36-1.45-.32-2.39,.11-1.04,.48-1.69,1.21-1.97,2.21-.28,1-.13,2.12,.45,3.38l2.94,6.38c.19,.42,.23,.78,.13,1.1s-.36,.56-.76,.75c-.4,.18-.76,.22-1.08,.1-.32-.12-.57-.38-.77-.8l-3.24-7.03c-.54-1.16-1.13-1.92-1.78-2.28-.65-.36-1.45-.32-2.39,.11-1.04,.48-1.69,1.21-1.97,2.21-.28,1-.13,2.12,.45,3.38l2.94,6.38c.39,.85,.17,1.47-.66,1.86Z"/>
    <path class="cls-4" d="M206.05,92.95c-.41,.15-.77,.15-1.08,0-.31-.14-.54-.43-.7-.87l-3.85-10.64-1.69,.61c-.34,.12-.63,.13-.89,.02-.25-.11-.43-.32-.54-.62-.12-.32-.11-.6,.02-.84,.13-.24,.36-.42,.7-.54l2.4-.87-.46,.93-.38-1.04c-.66-1.82-.71-3.37-.17-4.65s1.66-2.3,3.34-3.07l.85-.37c.27-.14,.51-.18,.72-.12s.38,.18,.51,.34c.12,.17,.2,.36,.22,.57,.02,.21,0,.42-.08,.62-.08,.2-.22,.34-.42,.44l-.61,.25c-1.09,.5-1.79,1.13-2.09,1.89-.3,.76-.25,1.7,.16,2.83l.41,1.13-.52-.29,3.24-1.17c.36-.13,.66-.14,.91-.04,.25,.1,.43,.31,.55,.63,.11,.3,.1,.58-.02,.82-.12,.25-.36,.44-.72,.56l-2.88,1.04,3.85,10.64c.32,.88,.06,1.48-.79,1.79Z"/>
    <path class="cls-4" d="M219.35,88.65c-1.52,.45-2.9,.54-4.16,.28s-2.34-.85-3.26-1.76-1.59-2.1-2.03-3.58c-.43-1.46-.52-2.82-.26-4.08,.26-1.27,.81-2.36,1.66-3.28,.84-.92,1.93-1.57,3.25-1.96,.94-.28,1.83-.37,2.69-.28,.85,.09,1.63,.36,2.35,.79,.71,.44,1.33,1.04,1.87,1.81,.53,.77,.96,1.69,1.27,2.77,.09,.31,.07,.57-.06,.79-.13,.22-.37,.38-.72,.48l-9.84,2.91-.49-1.67,9.18-2.72-.37,.55c-.3-1-.7-1.8-1.2-2.41-.5-.61-1.09-1.02-1.77-1.21-.67-.2-1.43-.17-2.28,.08-.92,.27-1.64,.72-2.17,1.35-.52,.62-.84,1.38-.96,2.26-.12,.88-.02,1.83,.28,2.84l.05,.17c.51,1.73,1.31,2.91,2.39,3.55,1.09,.64,2.41,.73,3.96,.27,.61-.18,1.22-.44,1.82-.79,.6-.34,1.13-.81,1.61-1.38,.24-.26,.48-.42,.72-.48,.24-.06,.46-.04,.66,.06,.2,.1,.34,.24,.44,.43,.1,.19,.13,.42,.1,.67-.03,.26-.15,.51-.37,.77-.5,.63-1.15,1.19-1.96,1.69s-1.6,.87-2.41,1.11Z"/>
    <path class="cls-4" d="M229.34,85.93c-.45,.1-.82,.06-1.1-.12-.29-.18-.48-.5-.59-.94l-2.74-11.93c-.1-.45-.06-.81,.12-1.09,.18-.28,.48-.46,.89-.56,.41-.09,.75-.05,1.03,.12,.27,.17,.46,.48,.57,.93l.52,2.25-.29,.07c.04-1.24,.42-2.26,1.14-3.06,.72-.8,1.72-1.39,3.01-1.77,.31-.09,.58-.08,.81,.04,.23,.12,.4,.38,.51,.76,.1,.37,.08,.68-.06,.95-.14,.27-.42,.47-.82,.6l-.52,.15c-1.25,.43-2.15,1.08-2.68,1.94-.53,.86-.66,1.91-.37,3.13l1.57,6.84c.1,.45,.07,.82-.1,1.1-.17,.29-.47,.48-.9,.58Z"/>
    <path class="cls-4" d="M244.8,82.91c-1.56,.26-2.95,.18-4.16-.23s-2.22-1.13-3.02-2.14-1.32-2.28-1.58-3.8c-.25-1.5-.17-2.86,.25-4.09,.41-1.22,1.1-2.24,2.05-3.05,.95-.81,2.11-1.32,3.47-1.55,.97-.16,1.87-.14,2.7,.05,.83,.2,1.58,.55,2.23,1.07,.65,.52,1.2,1.2,1.63,2.03,.43,.83,.74,1.8,.92,2.9,.05,.31,0,.57-.16,.77-.16,.2-.42,.33-.77,.39l-10.12,1.69-.29-1.72,9.44-1.57-.43,.5c-.17-1.03-.47-1.87-.9-2.54-.43-.67-.96-1.14-1.61-1.42s-1.4-.34-2.27-.2c-.95,.16-1.72,.51-2.32,1.07-.6,.56-1.01,1.26-1.23,2.12-.22,.86-.25,1.81-.07,2.86l.03,.18c.3,1.78,.94,3.05,1.94,3.81,1,.77,2.3,1.02,3.9,.75,.63-.1,1.26-.29,1.9-.56,.63-.27,1.22-.66,1.77-1.18,.27-.23,.52-.36,.77-.39,.25-.03,.46,.01,.65,.14s.31,.28,.38,.48c.07,.2,.08,.43,.02,.68-.06,.25-.21,.49-.46,.71-.58,.56-1.29,1.04-2.15,1.44-.86,.4-1.7,.66-2.53,.8Z"/>
    <path class="cls-4" d="M254.89,81.4c-.42,.04-.76-.05-1.02-.27-.26-.22-.41-.55-.45-1.01l-1.1-12.19c-.04-.46,.05-.81,.26-1.06,.22-.25,.54-.4,.96-.43,.42-.04,.75,.05,1,.25,.25,.21,.4,.54,.44,1l.22,2.45-.37-.42c.31-1.17,.92-2.09,1.81-2.75,.89-.66,1.95-1.05,3.16-1.16,1.17-.11,2.16,.02,2.96,.37s1.42,.94,1.88,1.76,.74,1.89,.86,3.21l.71,7.83c.04,.46-.04,.82-.25,1.08s-.53,.41-.97,.45c-.44,.04-.79-.05-1.05-.27-.26-.22-.41-.55-.45-1.01l-.7-7.68c-.12-1.29-.45-2.22-1-2.77-.55-.55-1.38-.78-2.47-.68-1.28,.12-2.26,.6-2.96,1.46-.7,.86-.98,1.95-.86,3.29l.64,7.05c.08,.94-.33,1.45-1.25,1.53Z"/>
    <path class="cls-4" d="M276.59,80.13c-1.48,.03-2.77-.26-3.86-.86-1.09-.61-1.94-1.48-2.55-2.62-.6-1.14-.92-2.49-.96-4.05-.02-1.16,.12-2.2,.43-3.13,.31-.93,.77-1.72,1.37-2.38s1.35-1.17,2.23-1.53c.88-.36,1.88-.55,3-.57,.7-.01,1.44,.08,2.23,.28,.78,.2,1.51,.55,2.18,1.03,.22,.16,.37,.34,.43,.55s.07,.42,.03,.64c-.04,.22-.14,.41-.29,.56-.15,.15-.33,.24-.56,.27-.23,.03-.48-.04-.74-.19-.49-.35-1-.6-1.53-.75-.53-.15-1.04-.22-1.52-.21-.74,.02-1.39,.15-1.96,.4-.57,.25-1.04,.61-1.42,1.07-.38,.46-.66,1.01-.85,1.67s-.27,1.41-.25,2.27c.04,1.7,.46,3.03,1.28,3.98s1.96,1.41,3.42,1.38c.48-.01,.98-.1,1.5-.26,.52-.16,1.02-.43,1.51-.8,.26-.17,.5-.24,.72-.21s.41,.11,.56,.26c.15,.15,.25,.32,.3,.53,.04,.21,.03,.42-.03,.65-.07,.22-.21,.41-.42,.55-.63,.49-1.32,.86-2.08,1.09-.75,.24-1.48,.36-2.18,.38Z"/>
    <path class="cls-4" d="M290.32,80.36c-1.58-.07-2.92-.43-4.02-1.09-1.1-.66-1.94-1.57-2.51-2.72-.57-1.16-.82-2.5-.75-4.04,.07-1.52,.43-2.83,1.09-3.95s1.54-1.96,2.63-2.56c1.1-.59,2.33-.86,3.71-.8,.98,.04,1.86,.25,2.63,.61,.77,.36,1.43,.87,1.96,1.51,.53,.64,.92,1.42,1.17,2.32,.25,.9,.35,1.91,.3,3.03-.01,.32-.12,.56-.32,.72s-.48,.23-.83,.22l-10.25-.45,.08-1.74,9.56,.42-.53,.4c.05-1.04-.07-1.93-.35-2.67-.28-.74-.7-1.32-1.28-1.72-.57-.41-1.3-.63-2.18-.67-.96-.04-1.79,.15-2.49,.57s-1.25,1.03-1.64,1.82c-.39,.79-.62,1.72-.66,2.78v.18c-.09,1.8,.28,3.18,1.1,4.13,.82,.96,2.04,1.47,3.66,1.54,.64,.03,1.3-.02,1.97-.15,.68-.13,1.33-.39,1.97-.79,.31-.17,.59-.24,.83-.22,.25,.02,.45,.11,.6,.27,.15,.16,.25,.34,.28,.55,.03,.21,0,.43-.12,.67-.11,.24-.31,.44-.6,.61-.68,.43-1.48,.75-2.4,.96-.92,.21-1.8,.3-2.64,.26Z"/>
    <path class="cls-4" d="M310.32,87.04c-.84-2.19-1.37-4.4-1.61-6.62-.24-2.22-.21-4.43,.09-6.63,.2-1.47,.51-2.91,.93-4.32,.42-1.42,.97-2.8,1.65-4.15,.68-1.35,1.47-2.65,2.39-3.9,.2-.26,.44-.4,.72-.43,.29-.03,.55,.02,.78,.17s.39,.36,.47,.65c.08,.29,.03,.63-.17,1.01-.69,1.24-1.3,2.48-1.82,3.72-.52,1.24-.95,2.5-1.29,3.76-.34,1.27-.6,2.56-.78,3.89s-.27,2.65-.28,3.96c0,1.31,.08,2.63,.27,3.96,.18,1.33,.43,2.69,.75,4.08,.11,.42,.08,.76-.09,1.02-.17,.26-.38,.42-.64,.49-.26,.07-.53,.04-.79-.06-.27-.11-.46-.3-.59-.58Z"/>
    <path class="cls-4" d="M325.43,84.83c-2.06-.41-3.74-1.2-5.04-2.35-1.3-1.16-2.19-2.61-2.66-4.37-.48-1.76-.5-3.72-.06-5.9,.33-1.63,.84-3.05,1.56-4.26,.71-1.21,1.58-2.2,2.61-2.97,1.03-.76,2.21-1.27,3.53-1.51,1.32-.25,2.76-.21,4.31,.1,1.18,.24,2.28,.63,3.3,1.18,1.02,.55,1.86,1.21,2.53,1.97,.27,.28,.43,.56,.47,.86,.04,.29,0,.56-.11,.79-.12,.23-.29,.41-.51,.54-.22,.13-.47,.17-.74,.13s-.55-.21-.82-.49c-.58-.67-1.25-1.2-2.02-1.61-.76-.41-1.61-.7-2.53-.89-1.51-.3-2.85-.24-4.03,.19-1.18,.43-2.16,1.19-2.94,2.29-.78,1.1-1.34,2.52-1.69,4.27-.34,1.73-.37,3.26-.08,4.59,.29,1.33,.9,2.42,1.82,3.27,.92,.85,2.14,1.42,3.65,1.72,.92,.18,1.82,.23,2.71,.14,.88-.09,1.73-.33,2.54-.72,.36-.15,.67-.19,.93-.12,.26,.07,.46,.2,.61,.38,.15,.18,.23,.4,.25,.66,.02,.26-.04,.51-.17,.75s-.35,.43-.66,.57c-.94,.53-2,.85-3.18,.97-1.18,.12-2.37,.06-3.59-.18Z"/>
    <path class="cls-4" d="M335.39,92.06c-.22,.21-.48,.31-.77,.31s-.54-.09-.75-.26c-.21-.17-.34-.4-.39-.69s.06-.61,.32-.96c.87-1.16,1.63-2.31,2.29-3.47,.66-1.16,1.24-2.34,1.74-3.56,.5-1.21,.92-2.46,1.27-3.76s.6-2.59,.76-3.9c.16-1.3,.24-2.62,.23-3.96s-.08-2.72-.21-4.14c-.05-.43,.02-.76,.21-1,.19-.24,.42-.38,.7-.42,.28-.04,.54,0,.78,.15,.24,.14,.41,.36,.49,.67,.57,2.26,.84,4.51,.79,6.75-.05,2.23-.36,4.43-.94,6.6-.38,1.43-.88,2.82-1.49,4.18-.61,1.36-1.33,2.66-2.16,3.91s-1.79,2.43-2.87,3.55Z"/>
    <path class="cls-4" d="M353.87,87.34c-.32-.12-.53-.3-.63-.53-.1-.23-.1-.5,.02-.8,.12-.3,.29-.49,.52-.59,.23-.09,.5-.08,.82,.04l12.08,4.7c.32,.12,.53,.3,.63,.52,.11,.22,.1,.49-.01,.78-.12,.32-.3,.52-.53,.62-.23,.09-.5,.08-.82-.04l-12.08-4.7Zm2.16-5.56c-.32-.12-.53-.3-.63-.53-.1-.23-.1-.5,.02-.8,.12-.3,.29-.5,.52-.6,.23-.1,.51-.09,.83,.03l12.08,4.7c.32,.12,.53,.3,.63,.54,.1,.23,.1,.5-.02,.8s-.29,.5-.52,.6c-.23,.1-.51,.09-.83-.03l-12.08-4.7Z"/>
    <path class="cls-4" d="M377.04,102.69c-.33-.19-.54-.43-.62-.73-.08-.3-.04-.61,.14-.92,.19-.33,.42-.53,.71-.6,.29-.07,.6,0,.93,.18l3.29,1.86,8.1-14.34,1.25,.71-5.2,.3c-.33,.02-.6-.05-.8-.2-.2-.15-.34-.34-.41-.58s-.08-.47-.01-.71c.07-.24,.2-.44,.4-.62,.2-.17,.47-.26,.81-.25l4.93-.32c.35,0,.67,0,.96,.04,.29,.04,.55,.12,.77,.25,.26,.15,.44,.35,.55,.62,.1,.26,.06,.57-.14,.92l-8.77,15.54,3.03,1.71c.35,.2,.56,.43,.65,.71,.08,.28,.03,.58-.15,.91s-.42,.54-.71,.62c-.29,.08-.6,.02-.95-.17l-8.75-4.94Z"/>
    <path class="cls-4" d="M395.66,114.29c-2.03-1.35-3.06-3.16-3.08-5.42s.94-4.85,2.88-7.76c1.32-1.98,2.66-3.48,4.02-4.5,1.36-1.02,2.73-1.56,4.11-1.62,1.38-.07,2.74,.35,4.09,1.25,2.05,1.36,3.09,3.16,3.12,5.38,.04,2.22-.93,4.81-2.89,7.75-1.3,1.95-2.63,3.44-4,4.47-1.37,1.03-2.75,1.59-4.13,1.68-1.38,.09-2.75-.32-4.12-1.23Zm1.31-1.97c1.33,.89,2.71,.97,4.12,.25,1.41-.72,2.93-2.29,4.55-4.72s2.48-4.42,2.59-5.97c.11-1.55-.51-2.77-1.86-3.67-1.33-.89-2.7-.98-4.09-.29-1.4,.69-2.9,2.25-4.52,4.68-1.62,2.43-2.49,4.44-2.6,6.02-.12,1.58,.49,2.82,1.82,3.7Z"/>
    <path class="cls-4" d="M412.6,126.41c-.35-.27-.54-.57-.58-.91-.04-.34,.08-.69,.36-1.05l6.94-8.93-1.42-1.1c-.28-.22-.45-.47-.49-.74-.04-.27,.04-.53,.23-.79,.21-.27,.45-.41,.71-.43,.27-.02,.54,.08,.83,.3l2.01,1.56-1.03,.11,.68-.88c1.19-1.53,2.47-2.41,3.84-2.62,1.37-.21,2.83,.18,4.38,1.18l.77,.52c.26,.15,.42,.33,.49,.55,.06,.21,.05,.42-.02,.61-.08,.19-.2,.36-.37,.49-.17,.14-.36,.22-.57,.26-.21,.04-.41,0-.59-.12l-.54-.38c-1.01-.66-1.91-.91-2.71-.76s-1.57,.7-2.31,1.65l-.74,.95-.03-.59,2.72,2.12c.3,.23,.47,.48,.52,.75,.05,.27-.03,.53-.24,.8-.2,.25-.43,.39-.71,.42s-.56-.08-.86-.31l-2.42-1.88-6.94,8.93c-.58,.74-1.22,.84-1.93,.29Z"/>
    <path class="cls-4" d="M422.81,134.71c-.91-.75-1.54-1.54-1.88-2.37s-.41-1.67-.2-2.54c.21-.87,.68-1.75,1.42-2.64l4.7-5.69-1.48-1.22c-.28-.23-.43-.48-.47-.75-.03-.27,.05-.53,.26-.78,.22-.26,.46-.4,.73-.41,.27-.01,.54,.1,.82,.33l1.48,1.22,2.08-2.52c.29-.35,.6-.54,.94-.57,.33-.03,.67,.1,1.01,.38s.52,.58,.56,.91c.03,.32-.1,.66-.39,1.02l-2.08,2.52,2.8,2.31c.29,.24,.46,.5,.5,.76,.04,.27-.05,.53-.27,.79-.2,.25-.44,.38-.72,.4-.28,.02-.56-.09-.85-.33l-2.8-2.31-4.55,5.51c-.7,.85-1.05,1.63-1.05,2.36,0,.73,.41,1.42,1.22,2.1,.29,.24,.56,.42,.81,.53s.44,.23,.6,.36c.15,.1,.23,.24,.24,.43,.01,.19-.1,.43-.35,.73-.18,.22-.38,.38-.59,.5-.22,.12-.45,.13-.7,.02-.24-.09-.53-.24-.88-.44-.35-.2-.65-.4-.9-.61Z"/>
  </g>
  <g>
    <path class="cls-4" d="M278.85,492.96h-.02c-4.02-.04-8.1-.21-12.11-.5-1.1-.08-1.93-1.04-1.85-2.14,.08-1.1,1.01-1.94,2.14-1.85,3.93,.28,7.92,.45,11.87,.49,1.1,.01,1.99,.92,1.98,2.02-.01,1.1-.91,1.98-2,1.98Zm11.99-.23c-1.06,0-1.94-.83-2-1.9-.06-1.1,.79-2.04,1.9-2.1,3.94-.2,7.92-.52,11.84-.96,1.09-.12,2.09,.67,2.21,1.77,.12,1.1-.67,2.09-1.77,2.21-4,.45-8.06,.77-12.08,.98-.03,0-.07,0-.1,0Zm-35.91-1.5c-.09,0-.18,0-.27-.02-3.99-.54-8.01-1.2-11.96-1.98-1.08-.21-1.79-1.27-1.57-2.35,.21-1.08,1.26-1.79,2.35-1.57,3.87,.76,7.81,1.42,11.71,1.94,1.09,.15,1.86,1.15,1.72,2.25-.14,1-.99,1.73-1.98,1.73Zm59.75-1.16c-.96,0-1.8-.69-1.97-1.66-.19-1.09,.54-2.12,1.63-2.31,3.88-.67,7.8-1.48,11.63-2.39,1.07-.25,2.15,.41,2.41,1.49,.25,1.07-.41,2.15-1.49,2.41-3.92,.93-7.91,1.75-11.87,2.43-.12,.02-.23,.03-.34,.03Zm-83.27-3.49c-.17,0-.34-.02-.51-.07-3.89-1.02-7.8-2.18-11.62-3.44-1.05-.35-1.62-1.48-1.27-2.52,.35-1.05,1.47-1.62,2.53-1.27,3.74,1.23,7.58,2.37,11.39,3.37,1.07,.28,1.71,1.37,1.43,2.44-.24,.9-1.05,1.49-1.93,1.49Zm106.61-2.03c-.86,0-1.65-.56-1.91-1.42-.32-1.06,.28-2.17,1.34-2.49,3.78-1.14,7.57-2.41,11.26-3.78,1.04-.38,2.19,.15,2.57,1.18,.38,1.04-.15,2.19-1.18,2.57-3.77,1.39-7.63,2.69-11.49,3.85-.19,.06-.39,.09-.58,.09Zm-129.39-5.47c-.25,0-.5-.05-.74-.14-3.73-1.49-7.47-3.11-11.11-4.83-1-.47-1.43-1.66-.96-2.66,.47-1,1.67-1.43,2.66-.96,3.57,1.68,7.23,3.27,10.89,4.73,1.03,.41,1.53,1.57,1.12,2.6-.31,.78-1.06,1.26-1.86,1.26Zm151.89-2.85c-.77,0-1.5-.45-1.83-1.19-.45-1.01,.01-2.19,1.02-2.64,3.61-1.59,7.21-3.31,10.72-5.11,.98-.51,2.19-.12,2.69,.86s.12,2.19-.86,2.69c-3.58,1.84-7.26,3.6-10.94,5.22-.26,.12-.54,.17-.8,.17Zm-173.59-7.37c-.32,0-.65-.08-.96-.25l-1.12-.62c-3.16-1.75-6.29-3.61-9.33-5.51-.94-.59-1.22-1.82-.63-2.76,.59-.94,1.82-1.22,2.76-.63,2.98,1.87,6.05,3.68,9.15,5.4l1.1,.61c.97,.53,1.32,1.75,.79,2.71-.36,.66-1.05,1.04-1.76,1.04Zm194.91-3.61c-.68,0-1.35-.35-1.72-.98-.56-.95-.25-2.18,.7-2.74,3.39-2.01,6.76-4.16,10.02-6.38,.91-.62,2.16-.39,2.78,.53,.62,.91,.39,2.16-.53,2.78-3.33,2.27-6.77,4.46-10.22,6.51-.32,.19-.67,.28-1.02,.28Zm-215.23-9.13c-.4,0-.81-.12-1.16-.37-3.27-2.34-6.51-4.81-9.64-7.35-.86-.7-.99-1.96-.29-2.81,.7-.86,1.96-.99,2.81-.29,3.06,2.49,6.24,4.91,9.44,7.2,.9,.64,1.11,1.89,.46,2.79-.39,.55-1,.84-1.63,.84Zm235.05-4.37c-.6,0-1.19-.27-1.58-.77-.68-.87-.52-2.13,.36-2.81,3.12-2.42,6.2-4.96,9.16-7.56,.83-.73,2.09-.65,2.82,.18,.73,.83,.65,2.09-.18,2.82-3.02,2.65-6.17,5.25-9.35,7.71-.36,.28-.79,.42-1.22,.42Zm-253.67-10.76c-.48,0-.97-.17-1.35-.53-2.96-2.73-5.88-5.58-8.67-8.48-.76-.8-.74-2.06,.06-2.83,.8-.77,2.06-.74,2.83,.06,2.73,2.84,5.59,5.63,8.49,8.3,.81,.75,.87,2.01,.12,2.83-.39,.43-.93,.65-1.47,.65Zm271.69-5.07c-.51,0-1.03-.2-1.42-.59-.78-.78-.77-2.05,0-2.83,2.8-2.78,5.55-5.68,8.17-8.63,.74-.83,2-.9,2.82-.16,.83,.73,.9,2,.17,2.82-2.67,3-5.48,5.97-8.33,8.81-.39,.39-.9,.58-1.41,.58Zm-288.32-12.22c-.57,0-1.13-.24-1.53-.71-2.6-3.06-5.15-6.25-7.56-9.48-.66-.88-.48-2.14,.4-2.8s2.14-.48,2.8,.4c2.37,3.16,4.86,6.28,7.41,9.28,.71,.84,.61,2.1-.23,2.82-.38,.32-.84,.48-1.29,.48Zm304.26-5.7c-.43,0-.87-.14-1.23-.43-.87-.68-1.02-1.94-.34-2.81,2.43-3.1,4.8-6.31,7.04-9.56,.63-.91,1.87-1.14,2.78-.51,.91,.63,1.14,1.87,.51,2.78-2.29,3.31-4.71,6.6-7.19,9.75-.39,.5-.98,.76-1.57,.76Zm-318.64-13.5c-.65,0-1.29-.32-1.67-.9-2.21-3.36-4.34-6.83-6.34-10.33-.55-.96-.22-2.18,.74-2.73s2.18-.22,2.73,.74c1.96,3.42,4.05,6.83,6.22,10.12,.61,.92,.35,2.16-.57,2.77-.34,.22-.72,.33-1.1,.33Zm332.28-6.23c-.35,0-.71-.09-1.03-.29-.95-.57-1.25-1.8-.68-2.75,1.28-2.12,2.54-4.3,3.75-6.46,.71-1.29,1.41-2.58,2.1-3.88,.51-.98,1.72-1.35,2.7-.84,.98,.51,1.35,1.72,.84,2.7-.7,1.32-1.41,2.64-2.14,3.96-1.22,2.21-2.51,4.43-3.82,6.59-.38,.62-1.04,.97-1.71,.97Zm-344.2-14.59c-.74,0-1.45-.41-1.79-1.11-1.79-3.61-3.48-7.32-5.04-11.02-.43-1.02,.05-2.19,1.07-2.62,1.02-.43,2.19,.05,2.62,1.07,1.53,3.63,3.19,7.26,4.94,10.8,.49,.99,.08,2.19-.91,2.68-.29,.14-.59,.21-.88,.21Zm355.37-6.64c-.28,0-.55-.06-.82-.18-1.01-.45-1.46-1.64-1-2.65,1.62-3.6,3.16-7.29,4.55-10.97,.39-1.03,1.55-1.55,2.58-1.16,1.03,.39,1.55,1.55,1.16,2.58-1.43,3.75-2.99,7.52-4.65,11.19-.33,.74-1.06,1.18-1.82,1.18Zm-364.68-15.47c-.83,0-1.6-.51-1.89-1.34-1.33-3.8-2.57-7.68-3.67-11.55-.3-1.06,.31-2.17,1.38-2.47,1.06-.3,2.17,.31,2.47,1.38,1.08,3.79,2.29,7.6,3.59,11.32,.37,1.04-.18,2.18-1.22,2.55-.22,.08-.44,.11-.66,.11Zm373.2-6.95c-.2,0-.4-.03-.6-.09-1.05-.33-1.64-1.45-1.31-2.5,1.17-3.76,2.24-7.61,3.18-11.44,.26-1.07,1.35-1.73,2.42-1.47,1.07,.26,1.73,1.35,1.47,2.42-.96,3.91-2.05,7.84-3.25,11.68-.27,.86-1.06,1.41-1.91,1.41Zm-379.76-16.12c-.92,0-1.75-.64-1.95-1.57-.86-3.93-1.62-7.94-2.24-11.91-.17-1.09,.57-2.11,1.67-2.29,1.08-.17,2.11,.57,2.29,1.67,.61,3.89,1.35,7.82,2.2,11.67,.24,1.08-.45,2.15-1.52,2.38-.14,.03-.29,.05-.43,.05Zm385.47-7.17c-.12,0-.24-.01-.36-.03-1.09-.2-1.81-1.24-1.61-2.32,.7-3.88,1.29-7.83,1.75-11.74,.13-1.1,1.13-1.88,2.22-1.75,1.1,.13,1.88,1.12,1.75,2.22-.47,4-1.07,8.03-1.79,11.99-.17,.97-1.02,1.64-1.97,1.64Zm-389.19-16.52c-1.02,0-1.89-.78-1.99-1.81-.38-4.01-.64-8.08-.78-12.09-.04-1.1,.83-2.03,1.93-2.07,1.08-.03,2.03,.83,2.07,1.93,.13,3.94,.39,7.92,.76,11.85,.1,1.1-.7,2.08-1.8,2.18-.06,0-.13,0-.19,0Zm392-7.3s-.08,0-.11,0c-1.1-.06-1.95-1.01-1.88-2.11,.2-3.59,.3-7.24,.3-10.85v-1.02c0-1.1,.88-2,1.99-2.01h.01c1.1,0,1.99,.89,2,1.99v1.04c0,3.68-.1,7.41-.31,11.07-.06,1.06-.94,1.89-2,1.89Zm-392.8-16.67s-.04,0-.06,0c-1.1-.03-1.97-.95-1.94-2.05,.11-4.01,.34-8.09,.7-12.1,.1-1.1,1.05-1.91,2.17-1.82,1.1,.1,1.91,1.07,1.82,2.17-.35,3.93-.58,7.92-.69,11.85-.03,1.09-.92,1.95-2,1.95Zm392.67-7.31c-1.04,0-1.92-.81-1.99-1.87-.26-3.93-.65-7.91-1.15-11.82-.14-1.1,.63-2.1,1.73-2.24,1.09-.14,2.1,.63,2.24,1.73,.51,3.99,.91,8.05,1.17,12.06,.07,1.1-.76,2.05-1.86,2.13-.04,0-.09,0-.13,0Zm-390.55-16.57c-.1,0-.2,0-.3-.02-1.09-.17-1.84-1.18-1.68-2.28,.6-3.98,1.33-7.99,2.18-11.92,.23-1.08,1.29-1.76,2.38-1.54,1.08,.23,1.77,1.3,1.53,2.38-.83,3.85-1.55,7.78-2.14,11.68-.15,.99-1,1.7-1.97,1.7Zm387.51-7.21c-.94,0-1.78-.67-1.96-1.63-.73-3.86-1.6-7.76-2.57-11.59-.27-1.07,.38-2.16,1.45-2.43,1.07-.27,2.16,.38,2.43,1.45,.99,3.91,1.88,7.89,2.62,11.83,.21,1.09-.51,2.13-1.59,2.34-.13,.02-.25,.04-.38,.04Zm-382.47-16.24c-.18,0-.36-.02-.54-.07-1.06-.3-1.68-1.4-1.39-2.47,1.09-3.88,2.31-7.77,3.63-11.56,.36-1.04,1.5-1.6,2.54-1.23,1.04,.36,1.6,1.5,1.23,2.55-1.29,3.72-2.49,7.53-3.55,11.33-.25,.88-1.05,1.46-1.92,1.46Zm376.57-7.01c-.85,0-1.63-.54-1.9-1.39-1.2-3.76-2.53-7.53-3.96-11.2-.4-1.03,.11-2.19,1.14-2.59,1.03-.4,2.19,.11,2.59,1.14,1.45,3.75,2.81,7.59,4.04,11.43,.34,1.05-.24,2.18-1.3,2.51-.2,.06-.41,.1-.61,.1Zm-368.71-15.64c-.26,0-.52-.05-.77-.15-1.02-.43-1.5-1.6-1.08-2.62,1.55-3.71,3.23-7.42,5-11.03,.49-.99,1.68-1.4,2.68-.91,.99,.49,1.4,1.68,.92,2.68-1.74,3.54-3.39,7.18-4.91,10.81-.32,.77-1.06,1.23-1.85,1.23Zm360.03-6.72c-.76,0-1.48-.43-1.82-1.17-1.65-3.59-3.43-7.17-5.29-10.64-.52-.97-.16-2.19,.82-2.71,.98-.52,2.19-.15,2.71,.82,1.9,3.54,3.71,7.19,5.39,10.85,.46,1,.02,2.19-.98,2.65-.27,.12-.55,.18-.83,.18Zm-349.47-14.81c-.33,0-.67-.08-.99-.26-.96-.54-1.3-1.77-.75-2.73,1.98-3.49,4.1-6.97,6.3-10.35,.6-.93,1.84-1.19,2.77-.59,.93,.6,1.19,1.84,.59,2.77-2.15,3.32-4.23,6.73-6.17,10.15-.37,.65-1.04,1.01-1.74,1.01Zm338.15-6.33c-.67,0-1.33-.34-1.7-.95-2.07-3.35-4.27-6.69-6.54-9.91-.64-.9-.42-2.15,.48-2.79,.9-.64,2.15-.42,2.79,.48,2.32,3.29,4.57,6.7,6.68,10.12,.58,.94,.29,2.17-.65,2.75-.33,.2-.69,.3-1.05,.3Zm-325.09-13.79c-.41,0-.83-.13-1.18-.39-.89-.65-1.08-1.91-.43-2.8,2.38-3.23,4.89-6.44,7.46-9.55,.71-.85,1.96-.97,2.82-.26,.85,.7,.97,1.97,.26,2.82-2.52,3.04-4.98,6.2-7.32,9.37-.39,.53-1,.81-1.61,.81Zm311.27-5.81c-.59,0-1.17-.26-1.56-.75-2.46-3.07-5.05-6.11-7.71-9.04-.74-.82-.68-2.08,.14-2.82,.82-.74,2.08-.68,2.83,.14,2.71,2.99,5.36,6.09,7.87,9.22,.69,.86,.55,2.12-.31,2.81-.37,.3-.81,.44-1.25,.44Zm-295.96-12.66c-.49,0-.98-.18-1.36-.54-.81-.75-.85-2.02-.1-2.83,2.74-2.95,5.6-5.85,8.5-8.63,.8-.76,2.06-.74,2.83,.06,.76,.8,.74,2.06-.06,2.83-2.84,2.73-5.65,5.57-8.34,8.47-.39,.42-.93,.64-1.46,.64Zm279.84-5.1c-.5,0-1.01-.19-1.4-.57-2.82-2.75-5.77-5.45-8.76-8.02-.84-.72-.93-1.98-.21-2.82,.72-.84,1.98-.93,2.82-.21,3.05,2.63,6.06,5.38,8.94,8.19,.79,.77,.81,2.04,.04,2.83-.39,.4-.91,.6-1.43,.6Zm-262.52-11.5c-.56,0-1.13-.24-1.52-.7-.72-.84-.62-2.1,.22-2.82,3.06-2.61,6.23-5.17,9.43-7.6,.88-.67,2.14-.5,2.8,.38,.67,.88,.5,2.13-.38,2.8-3.14,2.38-6.25,4.89-9.25,7.46-.38,.32-.84,.48-1.3,.48Zm244.34-4.15c-.42,0-.85-.13-1.21-.41-3.13-2.38-6.39-4.7-9.67-6.89-.92-.61-1.17-1.85-.55-2.77,.61-.92,1.86-1.17,2.77-.55,3.35,2.24,6.67,4.6,9.87,7.03,.88,.67,1.05,1.92,.38,2.8-.39,.52-.99,.79-1.59,.79Zm-225.24-10.35c-.64,0-1.28-.31-1.66-.88-.62-.92-.37-2.16,.54-2.78,3.34-2.24,6.79-4.42,10.25-6.46,.95-.56,2.18-.25,2.74,.7,.56,.95,.25,2.18-.7,2.74-3.39,2.01-6.77,4.14-10.05,6.34-.34,.23-.73,.34-1.11,.34Zm205.3-2.96c-.34,0-.69-.09-1.01-.27-1.24-.72-2.49-1.43-3.75-2.13-2.05-1.14-4.31-2.32-6.69-3.5-.99-.49-1.39-1.69-.9-2.68,.49-.99,1.69-1.4,2.68-.9,2.44,1.21,4.75,2.42,6.86,3.59,1.29,.71,2.56,1.44,3.82,2.18,.95,.56,1.28,1.78,.72,2.74-.37,.64-1.04,.99-1.73,.99Zm-184.65-9.24c-.73,0-1.42-.4-1.78-1.08-.51-.98-.12-2.19,.86-2.69,3.58-1.84,7.25-3.6,10.92-5.23,1.01-.45,2.19,0,2.64,1.02,.45,1.01,0,2.19-1.02,2.64-3.6,1.6-7.21,3.33-10.72,5.13-.29,.15-.61,.22-.91,.22Zm163.19-1.5c-.26,0-.53-.05-.79-.16-3.56-1.54-7.28-3.05-11.04-4.49-1.03-.39-1.55-1.55-1.15-2.58,.39-1.03,1.55-1.55,2.58-1.15,3.82,1.46,7.59,2.99,11.2,4.55,1.01,.44,1.48,1.61,1.04,2.63-.33,.76-1.06,1.21-1.84,1.21Zm-141.27-8.23c-.81,0-1.57-.49-1.87-1.3-.39-1.03,.13-2.19,1.17-2.58,3.75-1.41,7.6-2.73,11.45-3.94,1.05-.33,2.18,.26,2.5,1.31,.33,1.05-.26,2.18-1.31,2.51-3.78,1.18-7.56,2.48-11.24,3.86-.23,.09-.47,.13-.7,.13Zm118.85-.36c-.21,0-.43-.03-.64-.11-3.79-1.28-7.62-2.49-11.37-3.6-1.06-.31-1.67-1.42-1.35-2.48,.31-1.06,1.42-1.67,2.48-1.35,3.81,1.12,7.68,2.35,11.52,3.65,1.05,.35,1.61,1.49,1.25,2.54-.28,.83-1.06,1.36-1.89,1.36Zm-23.04-6.76c-.16,0-.32-.02-.48-.06-3.97-.98-7.88-1.83-11.62-2.55-1.08-.21-1.8-1.25-1.59-2.34,.21-1.08,1.26-1.8,2.34-1.59,3.81,.73,7.79,1.6,11.83,2.59,1.07,.26,1.73,1.35,1.46,2.42-.22,.91-1.04,1.52-1.94,1.52Zm-72.92-.03c-.9,0-1.71-.61-1.94-1.51-.27-1.07,.38-2.16,1.45-2.43,2.95-.74,5.97-1.43,8.98-2.05,1.09-.22,2.14,.47,2.36,1.55,.22,1.08-.47,2.14-1.55,2.36-2.95,.61-5.91,1.29-8.81,2.01-.16,.04-.33,.06-.49,.06Zm49.34-4.4c-.08,0-.16,0-.24-.01-4.15-.5-8.11-.8-11.78-.9-1.1-.03-1.98-.95-1.95-2.05,.03-1.09,.92-1.95,2-1.95,.02,0,.04,0,.05,0,3.79,.1,7.88,.41,12.16,.93,1.1,.13,1.88,1.13,1.75,2.23-.12,1.02-.99,1.76-1.98,1.76Z"/>
    <polygon class="cls-4" points="281.21 103.3 263.53 94.08 280.36 83.37 281.21 103.3"/>
    <polygon class="cls-4" points="248.32 106.98 263.53 94.08 244.76 87.36 248.32 106.98"/>
  </g>
  <g class="cls-1">
    <path class="cls-2" d="M281.18,114.72c99.22,0,179.66,80.44,179.66,179.66s-80.44,179.66-179.66,179.66-179.66-80.44-179.66-179.66S181.96,114.72,281.18,114.72m0-6c-25.06,0-49.38,4.91-72.27,14.59-22.11,9.35-41.96,22.74-59.01,39.79-17.05,17.05-30.43,36.9-39.79,59.01-9.68,22.89-14.59,47.21-14.59,72.27s4.91,49.38,14.59,72.27c9.35,22.11,22.74,41.96,39.79,59.01,17.05,17.05,36.9,30.43,59.01,39.79,22.89,9.68,47.21,14.59,72.27,14.59s49.38-4.91,72.27-14.59c22.11-9.35,41.96-22.74,59.01-39.79,17.05-17.05,30.43-36.9,39.79-59.01,9.68-22.89,14.59-47.21,14.59-72.27s-4.91-49.38-14.59-72.27c-9.35-22.11-22.74-41.96-39.79-59.01-17.05-17.05-36.9-30.43-59.01-39.79-22.89-9.68-47.21-14.59-72.27-14.59h0Z"/>
  </g>
</svg>