<?xml version="1.0" encoding="UTF-8"?>
<svg xmlns="http://www.w3.org/2000/svg" width="560" height="560" viewBox="0 0 560 560">
  <defs>
    <style>
      .e {
        letter-spacing: .16em;
      }

      .e, .f, .g, .h, .i {
        font-size: 36px;
      }

      .j {
        stroke-dasharray: 0 12;
      }

      .j, .k, .l {
        stroke: #b7b6b6;
        stroke-width: 6px;
      }

      .j, .k, .l, .m {
        fill: none;
        stroke-linejoin: round;
      }

      .n {
        fill: #8d8d8e;
      }

      .o {
        fill: #aaa;
      }

      .p, .f {
        fill: #bfbfbf;
      }

      .q, .g, .h, .r, .s {
        fill: #4a33f5;
      }

      .k, .m {
        stroke-linecap: round;
      }

      .k, .t {
        opacity: .43;
      }

      .f, .g, .h, .s {
        font-family: Raleway-Medium, Raleway;
        font-weight: 500;
      }

      .u {
        letter-spacing: 0em;
      }

      .u, .v {
        font-size: 30px;
      }

      .h {
        letter-spacing: -.03em;
      }

      .m {
        stroke: #4a33f5;
        stroke-width: 4px;
      }

      .w {
        opacity: .3;
      }

      .r {
        opacity: .7;
      }
    </style>
  </defs>
  <g id="a" data-name="Layer 4">
    <polygon class="r" points="99.19 460.81 460.81 340.27 99.19 219.73 99.19 460.81"/>
    <polygon class="m" points="99.19 460.81 460.81 340.27 99.19 219.73 99.19 460.81"/>
    <text class="f" transform="translate(207.2 487.07)"><tspan x="0" y="0">s</tspan></text>
    <text class="g" transform="translate(67.75 494.07)"><tspan x="0" y="0">B</tspan></text>
    <text class="h" transform="translate(68.43 221.73)"><tspan x="0" y="0">A</tspan></text>
    <text class="f" transform="translate(327.99 494.04)"><tspan x="0" y="0">C</tspan></text>
    <text class="f" transform="translate(406.75 419.99)"><tspan x="0" y="0">s</tspan></text>
    <text class="g" transform="translate(71.35 349.65)"><tspan x="0" y="0">s</tspan></text>
    <g>
      <text class="s" transform="translate(274.09 438.9) rotate(-18.09)"><tspan class="i" x="0" y="0">s</tspan><tspan class="e" x="17.78" y="0"> </tspan><tspan class="u" x="32.65" y="0">2</tspan></text>
      <path class="q" d="M285.82,421.68l5.22-2.17,6.08,8.7-5.64-23.13,23.22-8.66,.72,2.4-20.66,7.47,4.89,23.87-3.12,1.3-7.03-8.81-2.79,1.16-.89-2.13Z"/>
    </g>
    <g>
      <text class="s" transform="translate(255.49 262.21) rotate(18.16)"><tspan class="i" x="0" y="0" xml:space="preserve">s  </tspan><tspan class="v" x="36" y="0">3</tspan></text>
      <path class="q" d="M278.08,258.6l5.43,1.57-.7,10.59,12.08-25.57,23.53,7.78-.94,2.32-20.79-7.1-13.13,25.68-3.25-.94,.04-11.27-2.9-.84,.64-2.21Z"/>
    </g>
    <line class="k" x1="99.19" y1="460.81" x2="339.5" y2="460.81"/>
    <line class="k" x1="460.81" y1="340.27" x2="340.27" y2="460.81"/>
    <text class="g" transform="translate(469.17 351.28)"><tspan x="0" y="0">D</tspan></text>
    <polygon class="m" points="122.07 453.18 99.19 460.81 99.19 437.55 122.07 429.92 122.07 453.18"/>
  </g>
  <g id="d" data-name="ART">
    <g>
      <g class="t">
        <polyline class="l" points="99.19 219.73 340.27 219.73 340.27 460.81"/>
        <polygon class="l" points="460.81 99.2 219.73 99.2 99.19 219.73 340.27 219.73 460.81 99.2"/>
        <line class="l" x1="99.19" y1="219.73" x2="219.73" y2="99.19"/>
        <polyline class="l" points="340.27 460.81 340.27 219.73 460.81 99.19 460.81 340.27"/>
        <polygon class="l" points="460.81 99.2 219.73 99.2 99.19 219.73 340.27 219.73 460.81 99.2"/>
        <line class="j" x1="219.73" y1="99.19" x2="219.73" y2="340.27"/>
        <line class="j" x1="460.81" y1="340.27" x2="219.73" y2="340.27"/>
        <line class="j" x1="219.73" y1="340.27" x2="99.19" y2="460.81"/>
      </g>
      <g class="w">
        <g>
          <polygon class="n" points="460.81 99.2 219.73 99.2 99.19 219.73 340.27 219.73 460.81 99.2"/>
          <polygon class="o" points="460.81 340.27 340.27 460.81 340.27 219.73 460.81 99.19 460.81 340.27"/>
          <rect class="p" x="99.19" y="219.73" width="241.07" height="241.07"/>
        </g>
      </g>
    </g>
  </g>
</svg>