<svg width="416" height="495" viewBox="0 0 416 495" fill="none" xmlns="http://www.w3.org/2000/svg">
<path d="M10.836 8.44H13.572L24.012 34H20.556L17.532 26.512H6.804L3.816 34H0.36L10.836 8.44ZM16.812 23.992L12.204 12.184L7.452 23.992H16.812Z" fill="#EA6560"/>
<path d="M22.68 480.412C22.68 481.732 22.344 482.884 21.672 483.868C21 484.852 20.088 485.62 18.936 486.172C17.808 486.724 16.56 487 15.192 487H3.06V461.44H15.768C16.968 461.44 18 461.764 18.864 462.412C19.752 463.036 20.424 463.852 20.88 464.86C21.36 465.844 21.6 466.876 21.6 467.956C21.6 469.204 21.276 470.38 20.628 471.484C20.004 472.564 19.104 473.368 17.928 473.896C19.392 474.328 20.544 475.132 21.384 476.308C22.248 477.46 22.68 478.828 22.68 480.412ZM19.404 479.836C19.404 479.044 19.224 478.312 18.864 477.64C18.528 476.968 18.06 476.428 17.46 476.02C16.884 475.612 16.212 475.408 15.444 475.408H6.3V484.192H15.192C15.984 484.192 16.692 483.988 17.316 483.58C17.964 483.172 18.468 482.644 18.828 481.996C19.212 481.324 19.404 480.604 19.404 479.836ZM6.3 464.248V472.78H14.436C15.204 472.78 15.876 472.588 16.452 472.204C17.052 471.82 17.52 471.304 17.856 470.656C18.216 470.008 18.396 469.3 18.396 468.532C18.396 467.716 18.228 466.996 17.892 466.372C17.58 465.724 17.136 465.208 16.56 464.824C16.008 464.44 15.372 464.248 14.652 464.248H6.3Z" fill="#EA6560"/>
<path d="M392.404 474.04C392.404 472.48 392.668 470.956 393.196 469.468C393.748 467.956 394.54 466.588 395.572 465.364C396.628 464.116 397.912 463.132 399.424 462.412C400.936 461.668 402.652 461.296 404.572 461.296C406.852 461.296 408.808 461.824 410.44 462.88C412.072 463.912 413.284 465.244 414.076 466.876L411.52 468.532C411.016 467.452 410.368 466.6 409.576 465.976C408.808 465.328 407.968 464.872 407.056 464.608C406.168 464.344 405.292 464.212 404.428 464.212C403.012 464.212 401.752 464.5 400.648 465.076C399.568 465.652 398.656 466.42 397.912 467.38C397.168 468.34 396.604 469.42 396.22 470.62C395.86 471.796 395.68 472.984 395.68 474.184C395.68 475.504 395.896 476.776 396.328 478C396.784 479.224 397.408 480.304 398.2 481.24C398.992 482.176 399.928 482.92 401.008 483.472C402.088 484.024 403.264 484.3 404.536 484.3C405.424 484.3 406.336 484.144 407.272 483.832C408.208 483.52 409.084 483.04 409.9 482.392C410.716 481.72 411.364 480.856 411.844 479.8L414.544 481.276C414.016 482.548 413.2 483.628 412.096 484.516C410.992 485.404 409.756 486.076 408.388 486.532C407.044 486.988 405.712 487.216 404.392 487.216C402.64 487.216 401.032 486.844 399.568 486.1C398.104 485.332 396.832 484.324 395.752 483.076C394.696 481.804 393.868 480.388 393.268 478.828C392.692 477.244 392.404 475.648 392.404 474.04Z" fill="#EA6560"/>
<rect opacity="0.7" x="6" y="352" width="86" height="86" fill="white"/>
<path d="M118.158 318.46C118.158 319.353 118.371 320.167 118.798 320.9C119.238 321.62 119.831 322.193 120.578 322.62C121.324 323.047 122.144 323.26 123.038 323.26C123.651 323.26 124.218 323.153 124.738 322.94C125.258 322.727 125.718 322.427 126.118 322.04C126.518 321.64 126.811 321.187 126.998 320.68C126.984 321.987 126.811 323.1 126.478 324.02C126.158 324.94 125.704 325.647 125.118 326.14C124.544 326.633 123.858 326.88 123.058 326.88C122.324 326.88 121.651 326.673 121.038 326.26C120.424 325.847 119.978 325.307 119.698 324.64L118.818 325.44C119.204 326.253 119.771 326.893 120.518 327.36C121.278 327.84 122.124 328.08 123.058 328.08C124.098 328.08 125.011 327.767 125.798 327.14C126.584 326.513 127.198 325.573 127.638 324.32C128.078 323.053 128.298 321.453 128.298 319.52C128.298 318.28 128.078 317.22 127.638 316.34C127.211 315.447 126.611 314.767 125.838 314.3C125.078 313.82 124.198 313.58 123.198 313.58C122.264 313.58 121.411 313.8 120.638 314.24C119.878 314.68 119.271 315.267 118.818 316C118.378 316.733 118.158 317.553 118.158 318.46ZM123.178 314.78C123.844 314.78 124.458 314.947 125.018 315.28C125.591 315.613 126.044 316.06 126.378 316.62C126.711 317.18 126.878 317.793 126.878 318.46C126.878 319.127 126.711 319.74 126.378 320.3C126.044 320.86 125.598 321.307 125.038 321.64C124.478 321.973 123.858 322.14 123.178 322.14C122.511 322.14 121.891 321.973 121.318 321.64C120.758 321.307 120.304 320.86 119.958 320.3C119.624 319.74 119.458 319.127 119.458 318.46C119.458 317.78 119.624 317.167 119.958 316.62C120.304 316.06 120.758 315.613 121.318 315.28C121.878 314.947 122.498 314.78 123.178 314.78ZM140.296 319.14C140.296 320.313 140.076 321.36 139.636 322.28C139.21 323.187 138.616 323.9 137.856 324.42C137.096 324.94 136.236 325.2 135.276 325.2C134.316 325.2 133.456 324.94 132.696 324.42C131.95 323.9 131.356 323.187 130.916 322.28C130.476 321.36 130.256 320.313 130.256 319.14C130.256 317.967 130.476 316.927 130.916 316.02C131.356 315.1 131.95 314.38 132.696 313.86C133.456 313.327 134.316 313.06 135.276 313.06C136.236 313.06 137.096 313.327 137.856 313.86C138.616 314.38 139.21 315.1 139.636 316.02C140.076 316.927 140.296 317.967 140.296 319.14ZM138.916 319.14C138.916 318.193 138.763 317.36 138.456 316.64C138.15 315.92 137.723 315.36 137.176 314.96C136.63 314.547 135.996 314.34 135.276 314.34C134.556 314.34 133.923 314.547 133.376 314.96C132.83 315.36 132.396 315.92 132.076 316.64C131.77 317.36 131.616 318.193 131.616 319.14C131.616 320.087 131.77 320.92 132.076 321.64C132.396 322.36 132.83 322.92 133.376 323.32C133.923 323.72 134.556 323.92 135.276 323.92C135.996 323.92 136.63 323.72 137.176 323.32C137.723 322.907 138.15 322.347 138.456 321.64C138.763 320.92 138.916 320.087 138.916 319.14ZM146.002 316.88C145.362 316.88 144.802 316.76 144.322 316.52C143.842 316.267 143.442 315.94 143.122 315.54C142.802 315.127 142.562 314.687 142.402 314.22C142.242 313.753 142.162 313.293 142.162 312.84C142.162 312.36 142.249 311.887 142.422 311.42C142.596 310.94 142.849 310.5 143.182 310.1C143.516 309.7 143.916 309.387 144.382 309.16C144.862 308.92 145.396 308.8 145.982 308.8C146.622 308.8 147.176 308.927 147.642 309.18C148.122 309.433 148.522 309.767 148.842 310.18C149.162 310.58 149.402 311.02 149.562 311.5C149.722 311.967 149.802 312.42 149.802 312.86C149.802 313.34 149.716 313.82 149.542 314.3C149.369 314.78 149.116 315.213 148.782 315.6C148.462 315.987 148.062 316.3 147.582 316.54C147.116 316.767 146.589 316.88 146.002 316.88ZM143.082 312.84C143.082 313.333 143.189 313.827 143.402 314.32C143.629 314.8 143.956 315.2 144.382 315.52C144.822 315.84 145.362 316 146.002 316C146.482 316 146.902 315.9 147.262 315.7C147.636 315.5 147.942 315.24 148.182 314.92C148.422 314.6 148.602 314.26 148.722 313.9C148.842 313.54 148.902 313.187 148.902 312.84C148.902 312.347 148.789 311.86 148.562 311.38C148.336 310.887 148.002 310.48 147.562 310.16C147.136 309.84 146.609 309.68 145.982 309.68C145.502 309.68 145.076 309.787 144.702 310C144.342 310.2 144.042 310.46 143.802 310.78C143.562 311.087 143.382 311.427 143.262 311.8C143.142 312.16 143.082 312.507 143.082 312.84Z" fill="white"/>
<path d="M6 58V438H404L6 58Z" fill="#EA6560" fill-opacity="0.1" stroke="#EA6560" stroke-width="6"/>
</svg>
