<?xml version="1.0" encoding="UTF-8"?>
<svg id="Design" xmlns="http://www.w3.org/2000/svg" width="560" height="560" xmlns:xlink="http://www.w3.org/1999/xlink" viewBox="0 0 560 560">
  <defs>
    <style>
      .cls-1 {
        stroke-width: 5.68px;
      }

      .cls-1, .cls-2, .cls-3, .cls-4, .cls-5, .cls-6 {
        fill: none;
      }

      .cls-1, .cls-3, .cls-6 {
        stroke-miterlimit: 10;
      }

      .cls-1, .cls-6 {
        stroke: #c5c5c5;
      }

      .cls-2 {
        stroke: #8682ae;
      }

      .cls-2, .cls-4 {
        stroke-linejoin: round;
        stroke-width: 5.68px;
      }

      .cls-7 {
        fill: #c5c5c5;
      }

      .cls-8, .cls-9 {
        opacity: .4;
      }

      .cls-8, .cls-10 {
        fill: #a653b4;
      }

      .cls-11 {
        fill: #b2b1b1;
      }

      .cls-12 {
        fill: #fff;
        opacity: .1;
      }

      .cls-3 {
        stroke: #b2b1b1;
        stroke-dasharray: 0 11.35;
        stroke-width: 4.73px;
      }

      .cls-13 {
        fill: #ba70dd;
        opacity: .3;
      }

      .cls-14 {
        clip-path: url(#clippath);
      }

      .cls-4 {
        stroke: #a653b4;
      }

      .cls-6 {
        stroke-width: 4px;
      }
    </style>
    <clipPath id="clippath">
      <polygon class="cls-5" points="42.46 256.04 42.46 136.66 518.46 136.66 518.46 420.83 318.21 420.83 42.46 256.04"/>
    </clipPath>
  </defs>
  <line class="cls-1" x1="42.46" y1="256.02" x2="318.21" y2="421.18"/>
  <path class="cls-11" d="m320.71,412.37h-5v-12h5v12Zm0-24h-5v-12h5v12Zm0-24h-5v-12h5v12Zm0-24h-5v-12h5v12Zm0-24h-5v-12h5v12Zm0-24h-5v-12h5v12Zm0-24h-5v-12h5v12Z"/>
  <line class="cls-3" x1="42.46" y1="256.02" x2="518.46" y2="256.02"/>
  <polygon class="cls-12" points="42.46 256.04 42.46 136.66 518.46 136.66 518.46 420.83 318.21 420.83 42.46 256.04"/>
  <path class="cls-11" d="m507.85,258.39h-11.35v-4.73h11.35v4.73Zm-22.7,0h-11.35v-4.73h11.35v4.73Zm-22.7,0h-11.35v-4.73h11.35v4.73Zm-22.7,0h-11.35v-4.73h11.35v4.73Zm-22.7,0h-11.35v-4.73h11.35v4.73Zm-22.7,0h-11.35v-4.73h11.35v4.73Zm-22.7,0h-11.35v-4.73h11.35v4.73Zm-22.7,0h-11.35v-4.73h11.35v4.73Zm-22.7,0h-11.35v-4.73h11.35v4.73Zm-22.7,0h-11.35v-4.73h11.35v4.73Zm-22.7,0h-11.35v-4.73h11.35v4.73Zm-22.7,0h-11.35v-4.73h11.35v4.73Zm-22.7,0h-11.35v-4.73h11.35v4.73Zm-22.7,0h-11.35v-4.73h11.35v4.73Zm-22.7,0h-11.35v-4.73h11.35v4.73Zm-22.7,0h-11.35v-4.73h11.35v4.73Zm-22.7,0h-11.35v-4.73h11.35v4.73Zm-22.7,0h-11.35v-4.73h11.35v4.73Zm-22.7,0h-11.35v-4.73h11.35v4.73Zm-22.7,0h-11.35v-4.73h11.35v4.73Zm-22.7,0h-11.35v-4.73h11.35v4.73Z"/>
  <polygon class="cls-13" points="42.46 256.04 42.46 136.66 518.46 136.66 518.46 420.83 318.21 420.83 42.46 256.04"/>
  <g class="cls-14">
    <g>
      <polygon class="cls-8" points="222.06 482.98 219.23 482.98 568.11 134.11 569.14 135.9 222.06 482.98"/>
      <g class="cls-9">
        <polygon class="cls-10" points="-15.31 230.01 -11.71 223.59 211.87 0 212.91 1.79 -15.31 230.01"/>
      </g>
      <g class="cls-9">
        <polygon class="cls-10" points="-23.84 327.76 -26.66 327.76 244.22 56.87 245.26 58.66 -23.84 327.76"/>
      </g>
      <g class="cls-9">
        <polygon class="cls-10" points="-46.1 305.5 -48.93 305.5 221.96 34.61 223 36.4 -46.1 305.5"/>
      </g>
      <g class="cls-9">
        <polygon class="cls-10" points="20.77 372.37 17.95 372.37 288.83 101.48 289.87 103.27 20.77 372.37"/>
      </g>
      <g class="cls-9">
        <polygon class="cls-10" points="-1.49 350.11 -4.32 350.11 266.57 79.22 267.61 81.01 -1.49 350.11"/>
      </g>
      <g class="cls-9">
        <polygon class="cls-10" points="76.51 405.74 73.68 405.74 414.07 65.35 415.1 67.14 76.51 405.74"/>
      </g>
      <g class="cls-9">
        <polygon class="cls-10" points="54.25 383.48 51.42 383.48 322.3 112.59 323.34 114.39 54.25 383.48"/>
      </g>
      <g class="cls-9">
        <polygon class="cls-10" points="121.13 450.36 118.3 450.36 458.69 109.97 459.73 111.77 121.13 450.36"/>
      </g>
      <g class="cls-9">
        <polygon class="cls-10" points="98.87 428.1 96.04 428.1 436.43 87.71 437.46 89.51 98.87 428.1"/>
      </g>
      <g class="cls-9">
        <polygon class="cls-10" points="177.44 438.36 174.61 438.36 523.48 89.48 524.52 91.28 177.44 438.36"/>
      </g>
      <g class="cls-9">
        <polygon class="cls-10" points="199.8 460.72 196.97 460.72 545.85 111.85 546.88 113.64 199.8 460.72"/>
      </g>
      <g class="cls-9">
        <polygon class="cls-10" points="244.32 505.25 241.49 505.25 590.37 156.37 591.4 158.16 244.32 505.25"/>
      </g>
      <g class="cls-9">
        <polygon class="cls-10" points="366.93 471.88 364.1 471.88 634.99 200.99 636.02 202.78 366.93 471.88"/>
      </g>
      <g class="cls-9">
        <polygon class="cls-10" points="344.67 449.62 341.84 449.62 612.73 178.73 613.76 180.52 344.67 449.62"/>
      </g>
      <g class="cls-9">
        <polygon class="cls-10" points="389.19 494.14 386.36 494.14 657.25 223.25 658.29 225.04 389.19 494.14"/>
      </g>
      <g class="cls-9">
        <polygon class="cls-10" points="310.49 662.08 307.66 662.08 578.55 391.2 579.58 392.99 310.49 662.08"/>
      </g>
      <g class="cls-9">
        <polygon class="cls-10" points="288.23 639.82 285.4 639.82 556.29 368.94 557.32 370.73 288.23 639.82"/>
      </g>
    </g>
  </g>
  <polygon class="cls-2" points="42.46 256.04 42.46 136.66 518.46 136.66 518.46 420.83 318.21 420.83 42.46 256.04"/>
  <polygon class="cls-2" points="42.46 256.04 42.46 136.66 518.46 136.66 518.46 420.83 318.21 420.83 42.46 256.04"/>
  <polygon class="cls-4" points="42.46 256.04 42.46 136.66 518.46 136.66 518.46 420.83 318.21 420.83 42.46 256.04"/>
  <g>
    <line class="cls-6" x1="504.54" y1="121.33" x2="56.46" y2="121.33"/>
    <polygon class="cls-7" points="501.68 111.56 518.6 121.33 501.68 131.1 501.68 111.56"/>
    <polygon class="cls-7" points="59.32 111.56 42.39 121.33 59.32 131.1 59.32 111.56"/>
  </g>
  <g>
    <line class="cls-6" x1="504.34" y1="437.59" x2="332.96" y2="437.59"/>
    <polygon class="cls-7" points="501.48 427.81 518.4 437.59 501.48 447.36 501.48 427.81"/>
    <polygon class="cls-7" points="335.82 427.81 318.89 437.59 335.82 447.36 335.82 427.81"/>
  </g>
  <path class="cls-7" d="m318.21,423.67h-9.2v-5.68h9.2v5.68Zm-20.55,0h-11.35v-5.68h11.35v5.68Zm-22.7,0h-11.35v-5.68h11.35v5.68Zm-22.7,0h-11.35v-5.68h11.35v5.68Zm-22.7,0h-11.35v-5.68h11.35v5.68Zm-22.7,0h-11.35v-5.68h11.35v5.68Zm-22.7,0h-11.35v-5.68h11.35v5.68Zm-22.7,0h-11.35v-5.68h11.35v5.68Zm-22.7,0h-11.35v-5.68h11.35v5.68Zm-22.7,0h-11.35v-5.68h11.35v5.68Zm-22.7,0h-11.35v-5.68h11.35v5.68Zm-22.7,0h-11.35v-5.68h11.35v5.68Zm-22.7,0h-8.32v-8.71h5.68v3.03h2.64v5.68Zm-2.64-20.06h-5.68v-11.35h5.68v11.35Zm0-22.7h-5.68v-11.35h5.68v11.35Zm0-22.7h-5.68v-11.35h5.68v11.35Zm0-22.7h-5.68v-11.35h5.68v11.35Zm0-22.7h-5.68v-11.35h5.68v11.35Zm0-22.7h-5.68v-11.35h5.68v11.35Zm0-22.7h-5.68v-11.35h5.68v11.35Z"/>
  <g>
    <line class="cls-6" x1="532.62" y1="151.03" x2="532.62" y2="406.8"/>
    <polygon class="cls-7" points="522.85 153.89 532.62 136.96 542.4 153.89 522.85 153.89"/>
    <polygon class="cls-7" points="522.85 403.95 532.62 420.87 542.4 403.95 522.85 403.95"/>
  </g>
  <g>
    <path class="cls-7" d="m400.56,466.73c-1.16,0-2.32-.16-3.48-.48-1.16-.32-2.17-.8-3.03-1.44-.28-.2-.47-.43-.57-.69-.1-.26-.12-.5-.07-.74.05-.23.17-.42.34-.58s.4-.25.66-.29c.26-.03.54.04.84.23.86.56,1.71.96,2.56,1.21.85.25,1.74.38,2.66.38.98,0,1.81-.14,2.49-.44.68-.29,1.19-.72,1.54-1.29.35-.57.53-1.25.53-2.05,0-1.2-.39-2.1-1.17-2.71-.78-.61-1.92-.92-3.42-.92h-2.1c-.42,0-.74-.1-.96-.32-.22-.21-.33-.49-.33-.85,0-.38.11-.67.33-.87.22-.2.54-.3.96-.3h1.86c.88,0,1.63-.16,2.25-.46.62-.31,1.1-.75,1.46-1.31.35-.56.52-1.24.52-2.04,0-1.08-.35-1.9-1.05-2.47s-1.71-.85-3.03-.85c-.86,0-1.67.12-2.43.38-.76.25-1.53.67-2.31,1.24-.26.18-.52.27-.78.26-.26-.01-.48-.09-.65-.26-.17-.16-.29-.35-.34-.58-.06-.23-.05-.47.03-.73.08-.26.26-.49.54-.69.82-.64,1.76-1.13,2.83-1.48,1.07-.35,2.17-.53,3.31-.53,1.38,0,2.57.22,3.56.66.99.44,1.74,1.06,2.26,1.88.52.81.78,1.79.78,2.92,0,.86-.16,1.65-.48,2.35-.32.71-.78,1.31-1.37,1.8s-1.3.83-2.14,1.04v-.33c1.46.26,2.59.87,3.41,1.81.81.95,1.21,2.14,1.21,3.55,0,1.22-.3,2.29-.88,3.2-.59.91-1.43,1.61-2.51,2.08-1.08.48-2.36.72-3.84.72Z"/>
    <path class="cls-7" d="m418.83,466.73c-2.44,0-4.29-.93-5.56-2.8-1.27-1.87-1.91-4.55-1.91-8.05,0-2.38.29-4.37.85-5.97.57-1.6,1.41-2.81,2.52-3.63,1.11-.82,2.47-1.23,4.09-1.23,2.46,0,4.32.92,5.58,2.75s1.89,4.51,1.89,8.05c0,2.34-.29,4.32-.86,5.94s-1.41,2.85-2.5,3.69c-1.1.84-2.47,1.26-4.11,1.26Zm0-2.37c1.6,0,2.79-.69,3.57-2.07s1.17-3.53,1.17-6.45-.39-5.05-1.16-6.41c-.77-1.35-1.96-2.02-3.58-2.02s-2.79.67-3.57,2.02c-.78,1.35-1.17,3.49-1.17,6.41s.39,5.07,1.17,6.45c.78,1.38,1.97,2.07,3.57,2.07Z"/>
    <path class="cls-7" d="m439.2,448.46c-.54,0-.97-.14-1.28-.43-.31-.29-.46-.68-.46-1.16,0-.52.15-.92.46-1.19.31-.27.74-.4,1.28-.4.58,0,1.01.13,1.3.4.29.27.43.67.43,1.19,0,.48-.14.87-.43,1.16s-.73.43-1.3.43Zm0,18.15c-.42,0-.75-.13-.99-.39s-.36-.62-.36-1.08v-11.97c0-.48.12-.84.36-1.09s.57-.38.99-.38.78.12,1.02.38.36.62.36,1.09v11.97c0,.46-.12.82-.34,1.08-.23.26-.58.39-1.04.39Z"/>
    <path class="cls-7" d="m446.31,466.67c-.42,0-.75-.12-.99-.36s-.36-.59-.36-1.05v-12.24c0-.46.12-.8.36-1.03.24-.23.57-.35.99-.35s.75.12.98.35.34.58.34,1.03v2.46l-.33-.45c.42-1.14,1.1-2,2.05-2.58s2.04-.87,3.25-.87,2.15.21,2.91.63,1.33,1.06,1.71,1.92c.38.86.57,1.95.57,3.27v7.86c0,.46-.12.81-.34,1.05-.23.24-.57.36-1,.36s-.78-.12-1.02-.36c-.24-.24-.36-.59-.36-1.05v-7.71c0-1.3-.25-2.25-.75-2.85-.5-.6-1.3-.9-2.4-.9-1.28,0-2.31.4-3.08,1.19-.77.79-1.16,1.85-1.16,3.19v7.08c0,.94-.46,1.41-1.38,1.41Z"/>
  </g>
  <g>
    <path class="cls-7" d="m558.27,302.33c0,1.12-.16,2.25-.49,3.38-.33,1.13-.83,2.16-1.52,3.08-.18.26-.39.43-.64.52s-.5.1-.74.04-.44-.18-.62-.36c-.17-.18-.26-.39-.28-.64-.02-.25.06-.51.24-.79.56-.8.98-1.63,1.25-2.49.27-.86.41-1.76.41-2.7s-.18-1.75-.54-2.43c-.36-.68-.86-1.2-1.5-1.58-.64-.37-1.39-.55-2.25-.55-1.32,0-2.4.39-3.24,1.17s-1.26,1.84-1.26,3.18c0,.82.15,1.58.43,2.27.29.69.78,1.33,1.46,1.93.16.14.3.32.42.52.12.21.18.45.18.71,0,.38-.11.67-.32.87-.21.2-.5.3-.85.3h-10.29c-.4,0-.71-.11-.93-.33-.22-.22-.33-.53-.33-.93v-10.11c0-.4.1-.71.3-.93.2-.22.49-.33.87-.33s.68.11.89.33c.21.22.31.53.31.93v8.64h8.01v.78c-.8-.54-1.42-1.26-1.86-2.18-.44-.91-.66-1.91-.66-3.01,0-1.34.29-2.5.86-3.47.57-.97,1.36-1.72,2.37-2.26,1.01-.54,2.19-.81,3.53-.81s2.5.3,3.53.88c1.03.59,1.83,1.43,2.42,2.51s.87,2.37.87,3.87Z"/>
    <path class="cls-7" d="m558.27,284.72c0,2.44-.93,4.29-2.8,5.57s-4.55,1.91-8.05,1.91c-2.38,0-4.37-.29-5.97-.86-1.6-.57-2.81-1.41-3.63-2.52-.82-1.11-1.23-2.47-1.23-4.1,0-2.46.92-4.32,2.75-5.58,1.83-1.26,4.51-1.89,8.05-1.89,2.34,0,4.32.29,5.94.85,1.62.57,2.85,1.41,3.69,2.51s1.26,2.47,1.26,4.11Zm-2.37,0c0-1.6-.69-2.79-2.07-3.57s-3.53-1.17-6.45-1.17-5.05.39-6.41,1.16c-1.35.77-2.02,1.96-2.02,3.58s.67,2.79,2.02,3.57c1.35.78,3.49,1.17,6.41,1.17s5.07-.39,6.45-1.17c1.38-.78,2.07-1.97,2.07-3.57Z"/>
    <path class="cls-7" d="m540,264.35c0,.54-.14.96-.43,1.28s-.68.46-1.16.46c-.52,0-.92-.15-1.19-.46-.27-.31-.4-.74-.4-1.28,0-.58.13-1.01.4-1.3.27-.29.67-.44,1.19-.44.48,0,.87.15,1.16.44s.43.72.43,1.3Zm18.15,0c0,.42-.13.75-.39.99s-.62.36-1.08.36h-11.97c-.48,0-.84-.12-1.09-.36s-.38-.57-.38-.99.12-.78.38-1.02.62-.36,1.09-.36h11.97c.46,0,.82.12,1.08.34.26.23.39.58.39,1.04Z"/>
    <path class="cls-7" d="m558.21,257.24c0,.42-.12.75-.36.99s-.59.36-1.05.36h-12.24c-.46,0-.8-.12-1.03-.36-.23-.24-.35-.57-.35-.99s.12-.75.35-.98.58-.34,1.03-.34h2.46l-.45.33c-1.14-.42-2-1.11-2.58-2.05-.58-.95-.87-2.04-.87-3.26s.21-2.15.63-2.91c.42-.76,1.06-1.33,1.92-1.71.86-.38,1.95-.57,3.27-.57h7.86c.46,0,.81.12,1.05.34.24.23.36.57.36,1s-.12.78-.36,1.02c-.24.24-.59.36-1.05.36h-7.71c-1.3,0-2.25.25-2.85.75-.6.5-.9,1.3-.9,2.4,0,1.28.4,2.31,1.19,3.08s1.85,1.15,3.19,1.15h7.08c.94,0,1.41.46,1.41,1.38Z"/>
  </g>
  <g>
    <line class="cls-6" x1="29.66" y1="150.78" x2="29.66" y2="242.66"/>
    <polygon class="cls-7" points="19.88 153.64 29.66 136.71 39.43 153.64 19.88 153.64"/>
    <polygon class="cls-7" points="19.88 239.8 29.66 256.72 39.43 239.8 19.88 239.8"/>
  </g>
  <g>
    <path class="cls-7" d="m21.94,234.95c0,.48-.12.83-.34,1.06-.23.23-.54.34-.95.34-.24,0-.48-.06-.72-.18s-.48-.3-.72-.54l-7.05-6.57c-1.06-1-2.04-1.72-2.94-2.16-.9-.44-1.81-.66-2.73-.66-1.16,0-2.04.36-2.66,1.07-.61.71-.91,1.75-.91,3.1,0,.84.13,1.65.4,2.42.27.77.69,1.53,1.25,2.26.2.28.29.54.27.78-.02.24-.12.45-.29.62s-.37.29-.6.36c-.23.07-.47.07-.73-.01s-.48-.25-.66-.51c-.64-.82-1.14-1.77-1.5-2.85s-.54-2.19-.54-3.33c0-1.44.22-2.65.67-3.64s1.1-1.75,1.95-2.27c.85-.52,1.88-.78,3.1-.78.84,0,1.67.14,2.48.42.81.28,1.63.7,2.47,1.24.84.55,1.71,1.26,2.61,2.12l6.57,6.24h-.81v-9.84c0-.4.1-.71.3-.92.2-.21.49-.32.87-.32s.67.11.88.32.32.51.32.92v11.31Z"/>
    <path class="cls-7" d="m22.21,211.85c0,2.44-.93,4.29-2.8,5.56-1.87,1.27-4.55,1.91-8.05,1.91-2.38,0-4.37-.29-5.97-.85-1.6-.57-2.81-1.41-3.63-2.52-.82-1.11-1.23-2.48-1.23-4.09,0-2.46.92-4.32,2.75-5.58s4.51-1.89,8.05-1.89c2.34,0,4.32.29,5.94.86s2.85,1.41,3.69,2.5c.84,1.1,1.26,2.47,1.26,4.11Zm-2.37,0c0-1.6-.69-2.79-2.07-3.57-1.38-.78-3.53-1.17-6.45-1.17s-5.05.38-6.41,1.15c-1.35.77-2.02,1.96-2.02,3.59s.67,2.79,2.02,3.57c1.35.78,3.49,1.17,6.41,1.17s5.07-.39,6.45-1.17,2.07-1.97,2.07-3.57Z"/>
    <path class="cls-7" d="m3.94,191.48c0,.54-.14.97-.43,1.27-.29.31-.68.47-1.16.47-.52,0-.92-.16-1.19-.47-.27-.31-.4-.73-.4-1.27,0-.58.13-1.01.4-1.31.27-.29.67-.43,1.19-.43.48,0,.87.14,1.16.43.29.29.43.73.43,1.31Zm18.15,0c0,.42-.13.75-.39.99-.26.24-.62.36-1.08.36h-11.97c-.48,0-.84-.12-1.09-.36-.25-.24-.38-.57-.38-.99s.12-.78.38-1.02c.25-.24.62-.36,1.09-.36h11.97c.46,0,.82.12,1.08.34.26.23.39.58.39,1.04Z"/>
    <path class="cls-7" d="m22.15,184.37c0,.42-.12.75-.36.99-.24.24-.59.36-1.05.36h-12.24c-.46,0-.8-.12-1.03-.36-.23-.24-.35-.57-.35-.99s.12-.74.35-.97.58-.34,1.03-.34h2.46l-.45.33c-1.14-.42-2-1.1-2.58-2.06-.58-.95-.87-2.03-.87-3.25s.21-2.15.63-2.91,1.06-1.33,1.92-1.71c.86-.38,1.95-.57,3.27-.57h7.86c.46,0,.81.12,1.05.34.24.23.36.57.36,1s-.12.78-.36,1.02c-.24.24-.59.36-1.05.36h-7.71c-1.3,0-2.25.25-2.85.75-.6.5-.9,1.3-.9,2.4,0,1.28.4,2.3,1.19,3.07.79.77,1.85,1.16,3.19,1.16h7.08c.94,0,1.41.46,1.41,1.38Z"/>
  </g>
</svg>