<?xml version="1.0" encoding="UTF-8"?>
<svg id="Design" xmlns="http://www.w3.org/2000/svg" width="560" height="560" viewBox="0 0 560 560">
  <defs>
    <style>
      .cls-1 {
        fill: #fff;
      }

      .cls-2 {
        fill: #655c9d;
      }

      .cls-3, .cls-4 {
        stroke: #655c9d;
        stroke-linejoin: round;
      }

      .cls-3, .cls-4, .cls-5 {
        fill: none;
        stroke-width: 4px;
      }

      .cls-4 {
        stroke-dasharray: 0 0 7.85 7.85;
      }

      .cls-6 {
        opacity: .1;
      }

      .cls-5 {
        stroke: #f2a4ff;
        stroke-miterlimit: 10;
      }

      .cls-7 {
        fill: #f2a4ff;
      }
    </style>
  </defs>
  <g>
    <g>
      <g class="cls-6">
        <polygon class="cls-1" points="434.16 413.56 37.72 413.56 125.84 146.44 522.28 146.44 434.16 413.56"/>
      </g>
      <path class="cls-2" d="M513.98,152.44l-84.15,255.12H46.02l84.15-255.12h383.8m8.3-6H125.84L37.72,413.56H434.16l88.11-267.12h0Z"/>
    </g>
    <polygon class="cls-2" points="312.13 162.71 335.44 149.25 312.13 135.79 312.13 162.71"/>
    <polygon class="cls-2" points="231.23 424.21 254.55 410.75 231.23 397.29 231.23 424.21"/>
    <polygon class="cls-2" points="89.66 307.74 84.47 281.32 64.19 299.03 89.66 307.74"/>
    <polygon class="cls-2" points="97.32 284.76 92.13 258.34 71.84 276.05 97.32 284.76"/>
    <polygon class="cls-2" points="480.65 306.83 475.17 280.47 455.08 298.4 480.65 306.83"/>
    <polygon class="cls-2" points="488.23 283.85 482.75 257.49 462.66 275.42 488.23 283.85"/>
  </g>
  <path class="cls-2" d="M136.25,293.39c-.5,0-.9-.14-1.19-.43s-.43-.71-.43-1.26v-22.54c0-.55,.14-.97,.43-1.24,.29-.28,.68-.41,1.19-.41s.94,.14,1.22,.41c.29,.28,.43,.69,.43,1.24v10.26h-.47c.5-1.37,1.33-2.4,2.47-3.1,1.14-.7,2.44-1.04,3.91-1.04s2.58,.26,3.49,.77c.91,.52,1.6,1.29,2.05,2.32s.68,2.33,.68,3.89v9.43c0,.55-.14,.97-.41,1.26-.28,.29-.68,.43-1.21,.43s-.94-.14-1.22-.43-.43-.71-.43-1.26v-9.25c0-1.56-.3-2.7-.9-3.42-.6-.72-1.56-1.08-2.88-1.08-1.54,0-2.77,.47-3.69,1.42-.92,.95-1.39,2.23-1.39,3.83v8.5c0,1.13-.55,1.69-1.66,1.69Z"/>
  <g>
    <line class="cls-3" x1="127.82" y1="146.44" x2="127.82" y2="150.44"/>
    <line class="cls-4" x1="127.82" y1="158.29" x2="127.82" y2="405.63"/>
    <line class="cls-3" x1="127.82" y1="409.56" x2="127.82" y2="413.56"/>
  </g>
  <g>
    <line class="cls-5" x1="419.88" y1="428.11" x2="46.38" y2="428.11"/>
    <polygon class="cls-7" points="417.02 418.33 433.95 428.11 417.02 437.88 417.02 418.33"/>
    <polygon class="cls-7" points="49.24 418.33 32.31 428.11 49.24 437.88 49.24 418.33"/>
  </g>
  <path class="cls-7" d="M238.71,462.84c-1.58,0-2.94-.4-4.07-1.19-1.13-.79-1.88-1.86-2.27-3.2l.4-.54v3.17c0,.55-.14,.97-.41,1.26-.28,.29-.68,.43-1.21,.43s-.9-.14-1.19-.43c-.29-.29-.43-.71-.43-1.26v-22.54c0-.55,.14-.97,.43-1.24,.29-.28,.68-.41,1.19-.41s.94,.14,1.22,.41c.29,.28,.43,.69,.43,1.24v10.4h-.4c.38-1.3,1.14-2.33,2.27-3.11,1.13-.78,2.47-1.17,4.03-1.17s2.92,.37,4.09,1.1c1.16,.73,2.06,1.78,2.7,3.13,.64,1.36,.95,2.97,.95,4.84s-.32,3.46-.97,4.84c-.65,1.38-1.55,2.44-2.7,3.17-1.15,.73-2.51,1.1-4.07,1.1Zm-.76-2.59c1.03,0,1.94-.25,2.72-.76,.78-.5,1.39-1.24,1.82-2.2s.65-2.15,.65-3.56c0-2.11-.47-3.72-1.4-4.82-.94-1.1-2.2-1.66-3.78-1.66-1.06,0-1.97,.25-2.75,.74-.78,.49-1.38,1.22-1.8,2.18s-.63,2.15-.63,3.56c0,2.11,.47,3.73,1.4,4.84,.94,1.12,2.2,1.67,3.78,1.67Z"/>
</svg>